<svg width="11" height="17" viewBox="0 0 11 17" fill="none" xmlns="http://www.w3.org/2000/svg">
<path d="M4.08085 13.7494V12.4191H2.7496C2.01555 12.4193 1.41949 13.0153 1.41934 13.7494C1.41934 14.4836 2.01545 15.0805 2.7496 15.0806V16.5L2.4685 16.4851C1.08259 16.3441 0 15.1723 0 13.7494C0.000150986 12.2317 1.23189 10.9999 2.7496 10.9998H5.50019V13.7494L5.48534 14.0305C5.34452 15.4167 4.17272 16.5 2.7496 16.5V15.0806C3.48387 15.0806 4.08085 14.4837 4.08085 13.7494Z" fill="#817E89"/>
<path d="M0 8.24963C0.000150986 6.73192 1.23189 5.50018 2.7496 5.50003H5.50019V11.0002H2.7496V9.58088H4.08085V6.91937H2.7496C2.01555 6.91952 1.41949 7.51558 1.41934 8.24963C1.41934 8.98381 2.01545 9.58073 2.7496 9.58088V11.0002L2.4685 10.9854C1.08259 10.8443 0 9.67257 0 8.24963Z" fill="#817E89"/>
<path d="M0 2.74988C0.00015099 1.23217 1.23189 0.000429365 2.7496 0.000278375H5.50019V5.50046H2.7496V4.08113H4.08085V1.41962H2.7496C2.01555 1.41977 1.41949 2.01583 1.41934 2.74988C1.41934 3.48405 2.01545 4.08097 2.7496 4.08113V5.50046L2.4685 5.48562C1.08259 5.34455 0 4.17281 0 2.74988Z" fill="#817E89"/>
<path d="M8.24999 1.41934C8.98403 1.41945 9.58003 2.01558 9.58025 2.7496C9.58025 3.4838 8.98416 4.08074 8.24999 4.08085H5.24185V5.50977L8.24999 5.50019L8.53108 5.48534C9.91702 5.3443 10.9996 4.17256 10.9996 2.7496C10.9994 1.32679 9.91693 0.15485 8.53108 0.0138569L8.24999 0L5.24185 0.0234451V1.42893L8.24999 1.41934Z" fill="#817E89"/>
<path d="M9.58066 8.24963C9.58051 7.51549 8.98359 6.91937 8.24941 6.91937C7.51536 6.91952 6.9193 7.51558 6.91915 8.24963C6.91915 8.98381 7.51527 9.58073 8.24941 9.58088V11.0002L7.96832 10.9854C6.58241 10.8443 5.49981 9.67257 5.49981 8.24963C5.49997 6.73192 6.7317 5.50018 8.24941 5.50003C9.76725 5.50003 10.9998 6.73182 11 8.24963L10.9852 8.53073C10.8443 9.9169 9.67254 11.0002 8.24941 11.0002V9.58088C8.98368 9.58088 9.58066 8.9839 9.58066 8.24963Z" fill="#817E89"/>
</svg>
