<svg width="18" height="18" viewBox="0 0 18 18" fill="none" xmlns="http://www.w3.org/2000/svg">
<path d="M3.33551 9.75C3.33551 9.3634 3.64911 9.0498 4.03571 9.0498C4.4223 9.0498 4.7359 9.3634 4.7359 9.75V13.5498H8.53571C8.92231 13.5498 9.2359 13.8634 9.2359 14.25C9.2359 14.6366 8.92231 14.9502 8.53571 14.9502H4.03571C3.64911 14.9502 3.33551 14.6366 3.33551 14.25V9.75Z" fill="#817E89"/>
<path d="M13.8355 8.25V4.4502H10.0357C9.64911 4.4502 9.33551 4.1366 9.33551 3.75C9.33551 3.3634 9.64911 3.0498 10.0357 3.0498H14.5357C14.9223 3.0498 15.2359 3.3634 15.2359 3.75V8.25C15.2359 8.6366 14.9223 8.9502 14.5357 8.9502C14.1491 8.9502 13.8355 8.6366 13.8355 8.25Z" fill="#817E89"/>
</svg>
