<svg width="169" height="69" viewBox="0 0 169 69" fill="none" xmlns="http://www.w3.org/2000/svg">
<g clip-path="url(#clip0_0_68)">
<mask id="mask0_0_68" style="mask-type:alpha" maskUnits="userSpaceOnUse" x="4" y="0" width="154" height="70">
<rect x="4.59106" y="0.242981" width="153.326" height="69" fill="url(#paint0_linear_0_68)"/>
</mask>
<g mask="url(#mask0_0_68)">
<path d="M82.4675 0.242981L13.8855 69.243H24.2694L92.8514 0.242981H82.4675Z" fill="#323ABA"/>
<path d="M92.8514 0.242981L24.2694 69.243H34.6533L103.276 0.242981H92.8514Z" fill="#1963BF"/>
<path d="M103.276 0.242981L34.6533 69.243H45.0775L113.66 0.242981H103.276Z" fill="#1692CC"/>
<path d="M113.659 0.242981L45.0774 69.243H55.4613L124.043 0.242981H113.659Z" fill="#FBD41F"/>
<path d="M124.043 0.242981L55.4613 69.243H65.7245L134.347 0.242981H124.043Z" fill="#F88F14"/>
<path d="M134.347 0.242981L65.7245 69.243H76.1486L144.731 0.242981H134.347Z" fill="#FF5720"/>
</g>
<path d="M0 26.9278L0.0804954 26.7658L3.26006 23.5669L3.42105 23.4859H22.0557C22.1765 23.4859 22.2167 23.5264 22.2167 23.6479V26.6848L22.1362 26.8468L18.9567 30.0458L18.7957 30.1267H0.201238C0.0804954 30.1267 0.0402477 30.0863 0.0402477 29.9648V26.9278H0ZM3.26006 45.757L0.0804954 42.5581L0 42.3961V34.7024L0.0804954 34.5405L3.26006 31.3415L3.42105 31.2605H6.52012C6.64087 31.2605 6.68111 31.301 6.68111 31.4225V38.5898L6.76161 38.7517L7.0031 38.9947L7.16409 39.0757H18.7554L18.9164 39.1567L22.096 42.3556L22.1765 42.5176V45.6355C22.1765 45.757 22.1362 45.7975 22.0155 45.7975H3.42105L3.26006 45.7165V45.757Z" fill="white"/>
<path d="M26.805 45.757L23.6254 42.5581L23.5449 42.3961V26.9278L23.6254 26.7658L26.805 23.5669L26.966 23.4859H45.6007C45.7214 23.4859 45.7616 23.5264 45.7616 23.6479V26.7658L45.6811 26.9278L42.5016 30.1267L42.3406 30.2077H30.7493L30.5883 30.2887L30.3468 30.5317L30.2663 30.6936V38.5493L30.3468 38.7113L30.5883 38.9542L30.7493 39.0352H37.8731C37.9938 39.0352 38.0341 39.0757 38.0341 39.1972V42.3151L37.9536 42.4771L34.774 45.676L34.613 45.757H26.966L26.805 45.676V45.757ZM39.0403 31.382C39.0403 31.2605 39.0805 31.2201 39.2013 31.2201H42.3003L42.4613 31.301L45.6409 34.5L45.7214 34.662V45.6355C45.7214 45.757 45.6811 45.7975 45.5604 45.7975H42.4613L42.3003 45.7165L39.1208 42.5176L39.0403 42.3556V31.382Z" fill="white"/>
<path d="M47.452 26.8063L47.5325 26.6444L50.7121 23.4454L50.8731 23.3644H69.5078C69.6285 23.3644 69.6687 23.4049 69.6687 23.5264V26.6444L69.5882 26.8063L66.4087 30.0053L66.2477 30.0863H47.613C47.4923 30.0863 47.452 30.0458 47.452 29.9243V26.8063Z" fill="white"/>
<path d="M50.7121 45.757L47.5325 42.5581L47.452 42.3961V36.4032L47.5325 36.2412L52.4025 31.3415L52.5635 31.2606H53.9722C54.0929 31.2606 54.1331 31.3011 54.1331 31.4225V38.5898L54.2136 38.7518L54.4551 38.9947L54.6161 39.0757H61.6192L61.7802 39.1567L64.9598 42.3556L65.0403 42.5176V45.6356C65.0403 45.757 65 45.7975 64.8793 45.7975H50.8328L50.6718 45.7165L50.7121 45.757Z" fill="white"/>
<path d="M54.1734 22.1496C54.1734 22.2711 54.1332 22.3116 54.0124 22.3116H50.9134L50.7524 22.2306L47.5728 19.0317L47.4923 18.8697V15.7518C47.4923 15.6303 47.5326 15.5898 47.6533 15.5898H54.0124C54.1332 15.5898 54.1734 15.6303 54.1734 15.7518V22.1496Z" fill="white"/>
<path d="M86.8947 45.6761V30.7342L86.8142 30.5722L86.5728 30.3292L86.4118 30.2482H74.8204L74.6594 30.1673L71.4799 26.9683L71.3994 26.8063V19.1127L71.4799 18.9507L74.6594 15.7518L74.8204 15.6708H77.9195C78.0402 15.6708 78.0805 15.7113 78.0805 15.8327V23L78.161 23.162L78.4025 23.4049L78.5635 23.4859H90.1548L90.3158 23.5669L93.4954 26.7658L93.5758 26.9278V42.3961L93.4954 42.5581L90.3158 45.757L90.1548 45.838H87.0557C86.935 45.838 86.8947 45.7975 86.8947 45.6761ZM71.3591 34.7025L71.4396 34.5405L74.6192 31.3416L74.7802 31.2606H77.8793C78 31.2606 78.0402 31.3011 78.0402 31.4225V42.3961L77.9597 42.5581L74.7802 45.757L74.6192 45.838H71.5201C71.3994 45.838 71.3591 45.7975 71.3591 45.6761V34.7025Z" fill="white"/>
<path d="M122.916 26.9278L122.997 26.7658L126.177 23.5669L126.338 23.4859H137.929L138.09 23.4049L138.331 23.162L138.412 23V19.1127L138.492 18.9507L141.672 15.7518L141.833 15.6708H144.932C145.053 15.6708 145.093 15.7113 145.093 15.8327V26.8063L145.012 26.9683L141.833 30.1673L141.672 30.2482H130.081L129.92 30.3292L129.678 30.5722L129.598 30.7342V38.5898L129.678 38.7518L129.92 38.9947L130.081 39.0757H137.124C137.245 39.0757 137.285 39.1162 137.285 39.2377V42.3556L137.204 42.5176L134.025 45.7165L133.864 45.7975H126.297L126.136 45.7165L122.957 42.5176L122.876 42.3556V26.8873L122.916 26.9278ZM141.712 45.757L138.533 42.5581L138.452 42.3961V31.4225C138.452 31.3011 138.492 31.2606 138.613 31.2606H141.712L141.873 31.3416L145.053 34.5405L145.133 34.7025V45.6761C145.133 45.7975 145.093 45.838 144.972 45.838H141.873L141.712 45.757Z" fill="white"/>
<path d="M162.359 30.6937C162.399 30.3697 162.158 30.1673 161.836 30.1673H146.985C146.622 30.3697 146.904 26.9278 146.824 26.8873L146.904 26.7254L150.084 23.5264C150.204 23.2835 165.458 23.5264 165.619 23.4454L165.78 23.5264L168.96 26.7254L169.04 26.8873V32.1109L168.96 32.2729L164.09 37.1726L163.929 37.2535H156.242C156.121 37.2535 156.081 37.2131 156.081 37.0916L162.359 30.6937ZM150.124 45.7571L146.944 42.5581L146.864 42.3961V34.7025L146.944 34.5405L150.124 31.3416L150.285 31.2606H153.384C153.505 31.2606 153.545 31.3011 153.545 31.4226V38.5898L153.625 38.7518L153.867 38.9947L154.028 39.0757H165.619L165.78 39.1567L168.96 42.3557L169.04 42.5176V45.6356C169.04 45.7571 169 45.7976 168.879 45.7976H150.245L150.084 45.7166L150.124 45.7571Z" fill="white"/>
<path d="M107.26 31.382C108.95 27.3327 107.703 27.3327 109.393 31.382C111.607 30.0053 114.303 28.0211 117.523 25.2676L116.115 23.8503L115.954 23.7693H100.74L100.579 23.8503L99.1703 25.2676C102.35 28.0616 105.046 30.0053 107.3 31.382H107.26Z" fill="white"/>
<path d="M111.808 35.9173C113.176 38.1444 115.149 40.8574 117.885 44.0968L119.254 42.7201L119.334 42.5581V27.1708L119.254 27.0088L117.845 25.5916C115.068 28.7905 113.136 31.5035 111.768 33.7711C115.793 35.4718 115.793 34.2166 111.768 35.9173H111.808Z" fill="white"/>
<path d="M109.393 38.3063C107.703 42.3556 108.95 42.3556 107.26 38.3063C105.046 39.6831 102.35 41.6673 99.13 44.4208L100.539 45.7975L100.7 45.8785H115.913L116.074 45.7975L117.483 44.4208C114.263 41.6268 111.567 39.6831 109.353 38.3063H109.393Z" fill="white"/>
<path d="M104.885 33.7711C103.517 31.544 101.545 28.831 98.808 25.5916L97.3993 27.0088L97.3188 27.1708V42.5581L97.3993 42.7201L98.7678 44.0968C101.545 40.8574 103.477 38.1444 104.845 35.9173C100.82 34.2166 100.82 35.4718 104.845 33.7711H104.885Z" fill="white"/>
</g>
<defs>
<linearGradient id="paint0_linear_0_68" x1="104.196" y1="0.242981" x2="104.196" y2="69.243" gradientUnits="userSpaceOnUse">
<stop/>
<stop offset="0.258213" stop-opacity="0.26"/>
<stop offset="0.520661" stop-opacity="0.11"/>
<stop offset="0.740621" stop-opacity="0.26"/>
<stop offset="1"/>
</linearGradient>
<clipPath id="clip0_0_68">
<rect width="169" height="69" fill="white"/>
</clipPath>
</defs>
</svg>
