<svg width="18" height="18" viewBox="0 0 18 18" fill="none" xmlns="http://www.w3.org/2000/svg">
<path d="M9.01416 5.49961C9.01407 4.68107 8.69085 3.94221 8.16455 3.3961V5.74961C8.16455 6.13621 7.85096 6.44981 7.46436 6.44981H4.46436C4.07776 6.44981 3.76416 6.13621 3.76416 5.74961V3.3961C3.23787 3.94218 2.91465 4.68102 2.91455 5.49961C2.91455 6.74888 3.66506 7.81489 4.74561 8.28868C5.0001 8.40028 5.16455 8.65239 5.16455 8.93028V15.2496C5.16455 15.4139 5.29987 15.5504 5.46436 15.5504H6.46436C6.62885 15.5504 6.76416 15.4139 6.76416 15.2496V8.93028C6.76416 8.65239 6.92861 8.40028 7.18311 8.28868C8.26366 7.81489 9.01416 6.74888 9.01416 5.49961ZM10.4146 5.49961C10.4146 7.16179 9.50345 8.59329 8.16455 9.35704V15.2496C8.16455 16.1853 7.40387 16.9498 6.46436 16.9498H5.46436C4.52485 16.9498 3.76416 16.1853 3.76416 15.2496V9.35704C2.42526 8.59329 1.51416 7.16179 1.51416 5.49961C1.51431 3.66895 2.61792 2.11573 4.18311 1.4293C4.39953 1.3344 4.64933 1.35474 4.84717 1.48399C5.04501 1.61327 5.16455 1.83359 5.16455 2.06993V5.0504H6.76416V2.06993C6.76416 1.83359 6.8837 1.61327 7.08154 1.48399C7.27938 1.35474 7.52918 1.3344 7.74561 1.4293C9.3108 2.11574 10.4144 3.66906 10.4146 5.49961Z" fill="#BCBCBC"/>
<path d="M11.7642 15.25V9.25C11.7642 8.8634 12.0778 8.5498 12.4644 8.5498C12.851 8.5498 13.1646 8.8634 13.1646 9.25V15.25C13.1646 15.4143 13.2999 15.5498 13.4644 15.5498H14.4644C14.6288 15.5498 14.7642 15.4143 14.7642 15.25V9.25C14.7642 8.8634 15.0778 8.5498 15.4644 8.5498C15.851 8.5498 16.1646 8.8634 16.1646 9.25V15.25C16.1646 16.1857 15.4039 16.9502 14.4644 16.9502H13.4644C12.5248 16.9502 11.7642 16.1857 11.7642 15.25Z" fill="#BCBCBC"/>
<path d="M16.4644 8.5498C16.851 8.5498 17.1646 8.8634 17.1646 9.25C17.1646 9.6366 16.851 9.9502 16.4644 9.9502H11.4644C11.0778 9.9502 10.7642 9.6366 10.7642 9.25C10.7642 8.8634 11.0778 8.5498 11.4644 8.5498H16.4644Z" fill="#BCBCBC"/>
<path d="M13.2642 9.25V2.25C13.2642 1.8634 13.5778 1.5498 13.9644 1.5498C14.351 1.5498 14.6646 1.8634 14.6646 2.25V9.25C14.6646 9.6366 14.351 9.9502 13.9644 9.9502C13.5778 9.9502 13.2642 9.6366 13.2642 9.25Z" fill="#BCBCBC"/>
<path d="M13.9644 5.25L14.9644 3.5L14.4644 1.75H13.4644L12.9644 3.5L13.9644 5.25Z" fill="#BCBCBC"/>
<path d="M14.4644 1.0498L14.5796 1.05957C14.8426 1.10336 15.0621 1.29477 15.1372 1.55762L15.6372 3.30762C15.689 3.48894 15.6653 3.68393 15.5718 3.84766L14.5718 5.59766C14.4471 5.81551 14.2154 5.9502 13.9644 5.9502C13.7133 5.9502 13.4816 5.81551 13.3569 5.59766L12.3569 3.84766C12.2634 3.68393 12.2397 3.48894 12.2915 3.30762L12.7915 1.55762L12.8325 1.44922C12.947 1.20852 13.1911 1.0498 13.4644 1.0498H14.4644ZM13.7183 3.4082L13.9644 3.83887L14.2105 3.4082L13.9644 2.54688L13.7183 3.4082Z" fill="#BCBCBC"/>
</svg>
