<svg width="22" height="22" viewBox="0 0 22 22" fill="none" xmlns="http://www.w3.org/2000/svg">
<path d="M10.4435 3.21173C12.2101 1.44519 15.0733 1.44523 16.8399 3.21173C18.6065 4.97829 18.6065 7.84155 16.8399 9.60811L10.7897 15.6583C9.74009 16.7089 8.03672 16.7081 6.98694 15.6583V15.6572C5.93686 14.6076 5.93755 12.9053 6.98694 11.8556L12.8211 6.02141C13.1553 5.68757 13.6974 5.68745 14.0314 6.02141C14.3655 6.35544 14.3653 6.89756 14.0314 7.2317L8.19723 13.0659C7.83903 13.4244 7.8178 13.9901 8.13039 14.3729L8.19723 14.4469V14.4481C8.57962 14.8305 9.19891 14.8292 9.57939 14.4481L15.6296 8.39782C16.728 7.29949 16.728 5.52035 15.6296 4.42202C14.5313 3.32375 12.7521 3.32371 11.6538 4.42202L5.60359 10.4723C3.79054 12.2856 3.79036 15.2273 5.60359 17.0405C7.41682 18.8537 10.3585 18.8535 12.1718 17.0405L18.006 11.2063C18.3402 10.8724 18.8823 10.8723 19.2163 11.2063C19.5502 11.5403 19.5501 12.0825 19.2163 12.4166L13.3821 18.2496C10.9006 20.7312 6.87605 20.7312 4.39449 18.2496C1.91294 15.768 1.91293 11.7435 4.39449 9.26197L10.4435 3.21173Z" fill="#817E89"/>
</svg>
