<svg width="22" height="22" viewBox="0 0 22 22" fill="none" xmlns="http://www.w3.org/2000/svg">
<path d="M11 15.8889C11.5063 15.8889 11.9167 15.4785 11.9167 14.9722C11.9167 14.4659 11.5063 14.0555 11 14.0555C10.4938 14.0555 10.0834 14.4659 10.0834 14.9722C10.0834 15.4785 10.4938 15.8889 11 15.8889Z" fill="#817E89"/>
<path d="M14.3611 15.8889C14.8674 15.8889 15.2778 15.4785 15.2778 14.9722C15.2778 14.4659 14.8674 14.0555 14.3611 14.0555C13.8549 14.0555 13.4445 14.4659 13.4445 14.9722C13.4445 15.4785 13.8549 15.8889 14.3611 15.8889Z" fill="#817E89"/>
<path d="M7.63883 15.8889C8.1451 15.8889 8.5555 15.4785 8.5555 14.9722C8.5555 14.4659 8.1451 14.0555 7.63883 14.0555C7.13257 14.0555 6.72217 14.4659 6.72217 14.9722C6.72217 15.4785 7.13257 15.8889 7.63883 15.8889Z" fill="#817E89"/>
<path d="M3.11648 16.1944V12.9861C3.11648 12.3623 2.60999 11.8558 1.98617 11.8558C1.51366 11.8558 1.13037 11.4725 1.13037 11C1.13037 10.5275 1.51366 10.1442 1.98617 10.1442C2.60999 10.1442 3.11648 9.63771 3.11648 9.01388V5.80555C3.11648 3.98248 4.59366 2.50531 6.41672 2.50531H7.63894C8.11145 2.50531 8.49474 2.88859 8.49474 3.3611C8.49474 3.83361 8.11145 4.2169 7.63894 4.2169H6.41672C5.53868 4.2169 4.82807 4.9275 4.82807 5.80555V9.01388C4.82807 9.78737 4.51698 10.4875 4.01525 11C4.51698 11.5125 4.82807 12.2126 4.82807 12.9861V16.1944C4.82807 17.0725 5.53868 17.7831 6.41672 17.7831H7.63894C8.11145 17.7831 8.49474 18.1664 8.49474 18.6389C8.49474 19.1114 8.11145 19.4947 7.63894 19.4947H6.41672C4.59366 19.4947 3.11648 18.0175 3.11648 16.1944Z" fill="#817E89"/>
<path d="M17.172 16.1944V12.9861C17.172 12.2129 17.4823 11.5125 17.9837 11C17.4823 10.4875 17.172 9.78707 17.172 9.01388V5.80555C17.172 4.9275 16.4614 4.2169 15.5834 4.2169H14.3612C13.8887 4.2169 13.5054 3.83361 13.5054 3.3611C13.5054 2.88859 13.8887 2.50531 14.3612 2.50531H15.5834C17.4065 2.50531 18.8836 3.98248 18.8836 5.80555V9.01388C18.8836 9.63771 19.3901 10.1442 20.0139 10.1442C20.4865 10.1442 20.8697 10.5275 20.8697 11C20.8697 11.4725 20.4865 11.8558 20.0139 11.8558C19.3901 11.8558 18.8836 12.3623 18.8836 12.9861V16.1944C18.8836 18.0175 17.4065 19.4947 15.5834 19.4947H14.3612C13.8887 19.4947 13.5054 19.1114 13.5054 18.6389C13.5054 18.1664 13.8887 17.7831 14.3612 17.7831H15.5834C16.4614 17.7831 17.172 17.0725 17.172 16.1944Z" fill="#817E89"/>
</svg>
