<svg width="22" height="22" viewBox="0 0 22 22" fill="none" xmlns="http://www.w3.org/2000/svg">
<path d="M1.28308 9.47222V4.58333C1.28308 3.43615 2.21392 2.50531 3.3611 2.50531H8.00172C8.60094 2.50531 9.17112 2.76546 9.56531 3.21549H9.5665L12.4084 6.4644C12.7193 6.82006 12.6828 7.36128 12.3272 7.6723C11.9716 7.98317 11.4304 7.94671 11.1193 7.59114L8.27863 4.34222C8.20839 4.26212 8.10628 4.2169 8.00172 4.2169H3.3611C3.15894 4.2169 2.99467 4.38117 2.99467 4.58333V9.47222C2.99467 9.94473 2.61139 10.328 2.13888 10.328C1.66637 10.328 1.28308 9.94473 1.28308 9.47222Z" fill="#817E89"/>
<path d="M19.0053 9.47221C19.0053 8.59469 18.2942 7.88356 17.4167 7.88356H4.58332C3.7058 7.88356 2.99467 8.59469 2.99467 9.47221V16.1944C2.99467 17.0719 3.7058 17.7831 4.58332 17.7831H17.4167C18.2942 17.7831 19.0053 17.0719 19.0053 16.1944V9.47221ZM20.7169 16.1944C20.7169 18.017 19.2392 19.4947 17.4167 19.4947H4.58332C2.76078 19.4947 1.28308 18.017 1.28308 16.1944V9.47221C1.28308 7.64967 2.76078 6.17197 4.58332 6.17197H17.4167C19.2392 6.17197 20.7169 7.64967 20.7169 9.47221V16.1944Z" fill="#817E89"/>
</svg>
