<svg width="18" height="18" viewBox="0 0 18 18" fill="none" xmlns="http://www.w3.org/2000/svg">
<path d="M8 9C8 8.30964 7.44036 7.75 6.75 7.75C6.05964 7.75 5.5 8.30964 5.5 9C5.5 9.69036 6.05964 10.25 6.75 10.25C7.44036 10.25 8 9.69036 8 9Z" fill="#817E89"/>
<path d="M8 3.75C8 3.05964 7.44036 2.5 6.75 2.5C6.05964 2.5 5.5 3.05964 5.5 3.75C5.5 4.44036 6.05964 5 6.75 5C7.44036 5 8 4.44036 8 3.75Z" fill="#817E89"/>
<path d="M8 14.25C8 13.5596 7.44036 13 6.75 13C6.05964 13 5.5 13.5596 5.5 14.25C5.5 14.9404 6.05964 15.5 6.75 15.5C7.44036 15.5 8 14.9404 8 14.25Z" fill="#817E89"/>
<path d="M12.5 9C12.5 8.30964 11.9404 7.75 11.25 7.75C10.5596 7.75 10 8.30964 10 9C10 9.69036 10.5596 10.25 11.25 10.25C11.9404 10.25 12.5 9.69036 12.5 9Z" fill="#817E89"/>
<path d="M12.5 3.75C12.5 3.05964 11.9404 2.5 11.25 2.5C10.5596 2.5 10 3.05964 10 3.75C10 4.44036 10.5596 5 11.25 5C11.9404 5 12.5 4.44036 12.5 3.75Z" fill="#817E89"/>
<path d="M12.5 14.25C12.5 13.5596 11.9404 13 11.25 13C10.5596 13 10 13.5596 10 14.25C10 14.9404 10.5596 15.5 11.25 15.5C11.9404 15.5 12.5 14.9404 12.5 14.25Z" fill="#817E89"/>
</svg>
