<svg xmlns="http://www.w3.org/2000/svg" viewBox="0 0 79.7 80" width="18" height="18" fill="none" stroke-linecap="round" stroke-linejoin="round">
  <g stroke="#000" stroke-width="10" opacity="0.6">
    <line x1="39.9" y1="8.7" x2="39.9" y2="29.5"/>
    <line x1="39.9" y1="50.6" x2="39.9" y2="71.3"/>
    <line x1="71.2" y1="40" x2="50.4" y2="40"/>
    <line x1="29.3" y1="40" x2="8.6" y2="40"/>
    <path d="M39.9,29.3c-5.9,0-10.7,4.8-10.7,10.7h0c0,5.9,4.8,10.7,10.7,10.7s10.7-4.8,10.7-10.7h0c0-5.9-4.8-10.7-10.7-10.7Z"/>
    <line x1="22.7" y1="22.8" x2="13.3" y2="13.4"/>
    <line x1="66.5" y1="66.6" x2="57.1" y2="57.2"/>
    <line x1="66.5" y1="13.4" x2="57.1" y2="22.8"/>
    <line x1="22.7" y1="57.2" x2="13.3" y2="66.6"/>
  </g>
  <g stroke="#fff" stroke-width="5">
    <line x1="39.9" y1="8.7" x2="39.9" y2="29.5"/>
    <line x1="39.9" y1="50.6" x2="39.9" y2="71.3"/>
    <line x1="71.2" y1="40" x2="50.4" y2="40"/>
    <line x1="29.3" y1="40" x2="8.6" y2="40"/>
    <path d="M39.9,29.3c-5.9,0-10.7,4.8-10.7,10.7h0c0,5.9,4.8,10.7,10.7,10.7s10.7-4.8,10.7-10.7h0c0-5.9-4.8-10.7-10.7-10.7Z"/>
    <line x1="22.7" y1="22.8" x2="13.3" y2="13.4"/>
    <line x1="66.5" y1="66.6" x2="57.1" y2="57.2"/>
    <line x1="66.5" y1="13.4" x2="57.1" y2="22.8"/>
    <line x1="22.7" y1="57.2" x2="13.3" y2="66.6"/>
  </g>
</svg>
