<svg xmlns="http://www.w3.org/2000/svg" viewBox="0 0 18 18" width="18" height="18">
  <!-- dark outline layer -->
  <g fill="none" stroke="#1a1a1a" stroke-width="3" stroke-linecap="round" stroke-linejoin="round" opacity="0.6">
    <polyline points="10.25 12.75 12.75 15.25 15.25 12.75"/>
    <line x1="12.75" y1="15.25" x2="12.75" y2="2.75"/>
    <rect x="2.75" y="10.25" width="5" height="5" rx="1" ry="1"/>
    <path d="M2.75,6.5v.25c0,.552,.448,1,1,1h.25"/>
    <path d="M4,2.75h-.25c-.552,0-1,.448-1,1v.25"/>
    <path d="M7.75,4v-.25c0-.552-.448-1-1-1h-.25"/>
    <path d="M6.5,7.75h.25c.552,0,1-.448,1-1v-.25"/>
  </g>
  <!-- white icon layer -->
  <g fill="none" stroke="#ffffff" stroke-width="1.25" stroke-linecap="round" stroke-linejoin="round">
    <polyline points="10.25 12.75 12.75 15.25 15.25 12.75"/>
    <line x1="12.75" y1="15.25" x2="12.75" y2="2.75"/>
    <rect x="2.75" y="10.25" width="5" height="5" rx="1" ry="1"/>
    <path d="M2.75,6.5v.25c0,.552,.448,1,1,1h.25"/>
    <path d="M4,2.75h-.25c-.552,0-1,.448-1,1v.25"/>
    <path d="M7.75,4v-.25c0-.552-.448-1-1-1h-.25"/>
    <path d="M6.5,7.75h.25c.552,0,1-.448,1-1v-.25"/>
  </g>
</svg>
