<svg width="33" height="33" viewBox="0 0 33 33" fill="none" xmlns="http://www.w3.org/2000/svg">
<path d="M20.1329 12.4801C20.5733 12.0397 21.2878 12.0397 21.7282 12.4801C22.1687 12.9205 22.1687 13.635 21.7282 14.0755L17.2977 18.506C17.0862 18.7175 16.7991 18.8364 16.5 18.8364C16.2009 18.8364 15.9138 18.7175 15.7023 18.506L11.2718 14.0755C10.8313 13.635 10.8313 12.9205 11.2718 12.4801C11.7122 12.0397 12.4267 12.0397 12.8671 12.4801L16.5 16.1129L20.1329 12.4801Z" fill="#817E89"/>
<path d="M15.3719 17.7083V6.43055C15.3719 5.8077 15.8771 5.30246 16.5 5.30246C17.1228 5.30246 17.6281 5.8077 17.6281 6.43055V17.7083C17.6281 18.3312 17.1228 18.8364 16.5 18.8364C15.8771 18.8364 15.3719 18.3312 15.3719 17.7083Z" fill="#817E89"/>
<path d="M16.5 25.4413C17.8641 25.4413 19.8295 25.5923 22.0744 26.2988C22.6684 26.4858 22.999 27.1193 22.8123 27.7133C22.6253 28.3072 21.9918 28.6379 21.3978 28.4512C19.4249 27.8302 17.6975 27.6975 16.5 27.6975C14.4329 27.6975 12.7456 28.0912 11.6037 28.4512C11.0099 28.6384 10.3752 28.3086 10.1877 27.7148C10.0005 27.121 10.3303 26.4863 10.924 26.2988C12.2246 25.8888 14.1465 25.4413 16.5 25.4413Z" fill="#817E89"/>
<path d="M16.5 22.5417V26.5694" stroke="#817E89" stroke-linecap="round" stroke-linejoin="round"/>
<path d="M3.69135 19.3194V9.65277C3.69135 7.24964 5.63853 5.30246 8.04166 5.30246H11.6667C12.2895 5.30246 12.7948 5.8077 12.7948 6.43055C12.7948 7.05341 12.2895 7.55864 11.6667 7.55864H8.04166C6.88424 7.55864 5.94753 8.49535 5.94753 9.65277V19.3194C5.94753 20.4769 6.88424 21.4136 8.04166 21.4136H24.9583C26.1158 21.4136 27.0525 20.4769 27.0525 19.3194V9.65277C27.0525 8.49535 26.1158 7.55864 24.9583 7.55864H21.3333C20.7105 7.55864 20.2052 7.05341 20.2052 6.43055C20.2052 5.8077 20.7105 5.30246 21.3333 5.30246H24.9583C27.3615 5.30246 29.3086 7.24964 29.3086 9.65277V19.3194C29.3086 21.7226 27.3615 23.6698 24.9583 23.6698H8.04166C5.63853 23.6698 3.69135 21.7226 3.69135 19.3194Z" fill="#817E89"/>
</svg>
