<svg width="7" height="125" viewBox="0 0 7 125" fill="none" xmlns="http://www.w3.org/2000/svg">
<path d="M2.5 6.5C2.5 5.80964 1.94036 5.25 1.25 5.25C0.559644 5.25 -8.48157e-08 5.80964 -5.46392e-08 6.5C-2.44628e-08 7.19036 0.559644 7.75 1.25 7.75C1.94036 7.75 2.5 7.19036 2.5 6.5Z" fill="#28262F"/>
<path d="M2.5 1.25C2.5 0.559644 1.94036 -8.48157e-08 1.25 -5.46392e-08C0.559644 -2.44628e-08 -8.48157e-08 0.559644 -5.46392e-08 1.25C-2.44628e-08 1.94036 0.559644 2.5 1.25 2.5C1.94036 2.5 2.5 1.94036 2.5 1.25Z" fill="#28262F"/>
<path d="M2.5 11.75C2.5 11.0596 1.94036 10.5 1.25 10.5C0.559644 10.5 -8.48157e-08 11.0596 -5.46392e-08 11.75C-2.44628e-08 12.4404 0.559644 13 1.25 13C1.94036 13 2.5 12.4404 2.5 11.75Z" fill="#28262F"/>
<path d="M7 6.5C7 5.80964 6.44036 5.25 5.75 5.25C5.05964 5.25 4.5 5.80964 4.5 6.5C4.5 7.19036 5.05964 7.75 5.75 7.75C6.44036 7.75 7 7.19036 7 6.5Z" fill="#28262F"/>
<path d="M7 1.25C7 0.559644 6.44036 -8.48157e-08 5.75 -5.46392e-08C5.05964 -2.44628e-08 4.5 0.559644 4.5 1.25C4.5 1.94036 5.05964 2.5 5.75 2.5C6.44036 2.5 7 1.94036 7 1.25Z" fill="#28262F"/>
<path d="M7 11.75C7 11.0596 6.44036 10.5 5.75 10.5C5.05964 10.5 4.5 11.0596 4.5 11.75C4.5 12.4404 5.05964 13 5.75 13C6.44036 13 7 12.4404 7 11.75Z" fill="#28262F"/>
<path d="M2.5 22.5C2.5 21.8096 1.94036 21.25 1.25 21.25C0.559644 21.25 -8.48157e-08 21.8096 -5.46392e-08 22.5C-2.44628e-08 23.1904 0.559644 23.75 1.25 23.75C1.94036 23.75 2.5 23.1904 2.5 22.5Z" fill="#28262F"/>
<path d="M2.5 17.25C2.5 16.5596 1.94036 16 1.25 16C0.559644 16 -8.48157e-08 16.5596 -5.46392e-08 17.25C-2.44628e-08 17.9404 0.559644 18.5 1.25 18.5C1.94036 18.5 2.5 17.9404 2.5 17.25Z" fill="#28262F"/>
<path d="M2.5 27.75C2.5 27.0596 1.94036 26.5 1.25 26.5C0.559644 26.5 -8.48157e-08 27.0596 -5.46392e-08 27.75C-2.44628e-08 28.4404 0.559644 29 1.25 29C1.94036 29 2.5 28.4404 2.5 27.75Z" fill="#28262F"/>
<path d="M7 22.5C7 21.8096 6.44036 21.25 5.75 21.25C5.05964 21.25 4.5 21.8096 4.5 22.5C4.5 23.1904 5.05964 23.75 5.75 23.75C6.44036 23.75 7 23.1904 7 22.5Z" fill="#28262F"/>
<path d="M7 17.25C7 16.5596 6.44036 16 5.75 16C5.05964 16 4.5 16.5596 4.5 17.25C4.5 17.9404 5.05964 18.5 5.75 18.5C6.44036 18.5 7 17.9404 7 17.25Z" fill="#28262F"/>
<path d="M7 27.75C7 27.0596 6.44036 26.5 5.75 26.5C5.05964 26.5 4.5 27.0596 4.5 27.75C4.5 28.4404 5.05964 29 5.75 29C6.44036 29 7 28.4404 7 27.75Z" fill="#28262F"/>
<path d="M2.5 38.5C2.5 37.8096 1.94036 37.25 1.25 37.25C0.559644 37.25 -8.48157e-08 37.8096 -5.46392e-08 38.5C-2.44628e-08 39.1904 0.559644 39.75 1.25 39.75C1.94036 39.75 2.5 39.1904 2.5 38.5Z" fill="#28262F"/>
<path d="M2.5 33.25C2.5 32.5596 1.94036 32 1.25 32C0.559644 32 -8.48157e-08 32.5596 -5.46392e-08 33.25C-2.44628e-08 33.9404 0.559644 34.5 1.25 34.5C1.94036 34.5 2.5 33.9404 2.5 33.25Z" fill="#28262F"/>
<path d="M2.5 43.75C2.5 43.0596 1.94036 42.5 1.25 42.5C0.559644 42.5 -8.48157e-08 43.0596 -5.46392e-08 43.75C-2.44628e-08 44.4404 0.559644 45 1.25 45C1.94036 45 2.5 44.4404 2.5 43.75Z" fill="#28262F"/>
<path d="M7 38.5C7 37.8096 6.44036 37.25 5.75 37.25C5.05964 37.25 4.5 37.8096 4.5 38.5C4.5 39.1904 5.05964 39.75 5.75 39.75C6.44036 39.75 7 39.1904 7 38.5Z" fill="#28262F"/>
<path d="M7 33.25C7 32.5596 6.44036 32 5.75 32C5.05964 32 4.5 32.5596 4.5 33.25C4.5 33.9404 5.05964 34.5 5.75 34.5C6.44036 34.5 7 33.9404 7 33.25Z" fill="#28262F"/>
<path d="M7 43.75C7 43.0596 6.44036 42.5 5.75 42.5C5.05964 42.5 4.5 43.0596 4.5 43.75C4.5 44.4404 5.05964 45 5.75 45C6.44036 45 7 44.4404 7 43.75Z" fill="#28262F"/>
<path d="M2.5 54.5C2.5 53.8096 1.94036 53.25 1.25 53.25C0.559644 53.25 -8.48157e-08 53.8096 -5.46392e-08 54.5C-2.44628e-08 55.1904 0.559644 55.75 1.25 55.75C1.94036 55.75 2.5 55.1904 2.5 54.5Z" fill="#28262F"/>
<path d="M2.5 49.25C2.5 48.5596 1.94036 48 1.25 48C0.559644 48 -8.48157e-08 48.5596 -5.46392e-08 49.25C-2.44628e-08 49.9404 0.559644 50.5 1.25 50.5C1.94036 50.5 2.5 49.9404 2.5 49.25Z" fill="#28262F"/>
<path d="M2.5 59.75C2.5 59.0596 1.94036 58.5 1.25 58.5C0.559644 58.5 -8.48157e-08 59.0596 -5.46392e-08 59.75C-2.44628e-08 60.4404 0.559644 61 1.25 61C1.94036 61 2.5 60.4404 2.5 59.75Z" fill="#28262F"/>
<path d="M7 54.5C7 53.8096 6.44036 53.25 5.75 53.25C5.05964 53.25 4.5 53.8096 4.5 54.5C4.5 55.1904 5.05964 55.75 5.75 55.75C6.44036 55.75 7 55.1904 7 54.5Z" fill="#28262F"/>
<path d="M7 49.25C7 48.5596 6.44036 48 5.75 48C5.05964 48 4.5 48.5596 4.5 49.25C4.5 49.9404 5.05964 50.5 5.75 50.5C6.44036 50.5 7 49.9404 7 49.25Z" fill="#28262F"/>
<path d="M7 59.75C7 59.0596 6.44036 58.5 5.75 58.5C5.05964 58.5 4.5 59.0596 4.5 59.75C4.5 60.4404 5.05964 61 5.75 61C6.44036 61 7 60.4404 7 59.75Z" fill="#28262F"/>
<path d="M2.5 70.5C2.5 69.8096 1.94036 69.25 1.25 69.25C0.559644 69.25 -8.48157e-08 69.8096 -5.46392e-08 70.5C-2.44628e-08 71.1904 0.559644 71.75 1.25 71.75C1.94036 71.75 2.5 71.1904 2.5 70.5Z" fill="#28262F"/>
<path d="M2.5 65.25C2.5 64.5596 1.94036 64 1.25 64C0.559644 64 -8.48157e-08 64.5596 -5.46392e-08 65.25C-2.44628e-08 65.9404 0.559644 66.5 1.25 66.5C1.94036 66.5 2.5 65.9404 2.5 65.25Z" fill="#28262F"/>
<path d="M2.5 75.75C2.5 75.0596 1.94036 74.5 1.25 74.5C0.559644 74.5 -8.48157e-08 75.0596 -5.46392e-08 75.75C-2.44628e-08 76.4404 0.559644 77 1.25 77C1.94036 77 2.5 76.4404 2.5 75.75Z" fill="#28262F"/>
<path d="M7 70.5C7 69.8096 6.44036 69.25 5.75 69.25C5.05964 69.25 4.5 69.8096 4.5 70.5C4.5 71.1904 5.05964 71.75 5.75 71.75C6.44036 71.75 7 71.1904 7 70.5Z" fill="#28262F"/>
<path d="M7 65.25C7 64.5596 6.44036 64 5.75 64C5.05964 64 4.5 64.5596 4.5 65.25C4.5 65.9404 5.05964 66.5 5.75 66.5C6.44036 66.5 7 65.9404 7 65.25Z" fill="#28262F"/>
<path d="M7 75.75C7 75.0596 6.44036 74.5 5.75 74.5C5.05964 74.5 4.5 75.0596 4.5 75.75C4.5 76.4404 5.05964 77 5.75 77C6.44036 77 7 76.4404 7 75.75Z" fill="#28262F"/>
<path d="M2.5 86.5C2.5 85.8096 1.94036 85.25 1.25 85.25C0.559644 85.25 -8.48157e-08 85.8096 -5.46392e-08 86.5C-2.44628e-08 87.1904 0.559644 87.75 1.25 87.75C1.94036 87.75 2.5 87.1904 2.5 86.5Z" fill="#28262F"/>
<path d="M2.5 81.25C2.5 80.5596 1.94036 80 1.25 80C0.559644 80 -8.48157e-08 80.5596 -5.46392e-08 81.25C-2.44628e-08 81.9404 0.559644 82.5 1.25 82.5C1.94036 82.5 2.5 81.9404 2.5 81.25Z" fill="#28262F"/>
<path d="M2.5 91.75C2.5 91.0596 1.94036 90.5 1.25 90.5C0.559644 90.5 -8.48157e-08 91.0596 -5.46392e-08 91.75C-2.44628e-08 92.4404 0.559644 93 1.25 93C1.94036 93 2.5 92.4404 2.5 91.75Z" fill="#28262F"/>
<path d="M7 86.5C7 85.8096 6.44036 85.25 5.75 85.25C5.05964 85.25 4.5 85.8096 4.5 86.5C4.5 87.1904 5.05964 87.75 5.75 87.75C6.44036 87.75 7 87.1904 7 86.5Z" fill="#28262F"/>
<path d="M7 81.25C7 80.5596 6.44036 80 5.75 80C5.05964 80 4.5 80.5596 4.5 81.25C4.5 81.9404 5.05964 82.5 5.75 82.5C6.44036 82.5 7 81.9404 7 81.25Z" fill="#28262F"/>
<path d="M7 91.75C7 91.0596 6.44036 90.5 5.75 90.5C5.05964 90.5 4.5 91.0596 4.5 91.75C4.5 92.4404 5.05964 93 5.75 93C6.44036 93 7 92.4404 7 91.75Z" fill="#28262F"/>
<path d="M2.5 102.5C2.5 101.81 1.94036 101.25 1.25 101.25C0.559644 101.25 -8.48157e-08 101.81 -5.46392e-08 102.5C-2.44628e-08 103.19 0.559644 103.75 1.25 103.75C1.94036 103.75 2.5 103.19 2.5 102.5Z" fill="#28262F"/>
<path d="M2.5 97.25C2.5 96.5596 1.94036 96 1.25 96C0.559644 96 -8.48157e-08 96.5596 -5.46392e-08 97.25C-2.44628e-08 97.9404 0.559644 98.5 1.25 98.5C1.94036 98.5 2.5 97.9404 2.5 97.25Z" fill="#28262F"/>
<path d="M2.5 107.75C2.5 107.06 1.94036 106.5 1.25 106.5C0.559644 106.5 -8.48157e-08 107.06 -5.46392e-08 107.75C-2.44628e-08 108.44 0.559644 109 1.25 109C1.94036 109 2.5 108.44 2.5 107.75Z" fill="#28262F"/>
<path d="M7 102.5C7 101.81 6.44036 101.25 5.75 101.25C5.05964 101.25 4.5 101.81 4.5 102.5C4.5 103.19 5.05964 103.75 5.75 103.75C6.44036 103.75 7 103.19 7 102.5Z" fill="#28262F"/>
<path d="M7 97.25C7 96.5596 6.44036 96 5.75 96C5.05964 96 4.5 96.5596 4.5 97.25C4.5 97.9404 5.05964 98.5 5.75 98.5C6.44036 98.5 7 97.9404 7 97.25Z" fill="#28262F"/>
<path d="M7 107.75C7 107.06 6.44036 106.5 5.75 106.5C5.05964 106.5 4.5 107.06 4.5 107.75C4.5 108.44 5.05964 109 5.75 109C6.44036 109 7 108.44 7 107.75Z" fill="#28262F"/>
<path d="M2.5 118.5C2.5 117.81 1.94036 117.25 1.25 117.25C0.559644 117.25 -8.48157e-08 117.81 -5.46392e-08 118.5C-2.44628e-08 119.19 0.559644 119.75 1.25 119.75C1.94036 119.75 2.5 119.19 2.5 118.5Z" fill="#28262F"/>
<path d="M2.5 113.25C2.5 112.56 1.94036 112 1.25 112C0.559644 112 -8.48157e-08 112.56 -5.46392e-08 113.25C-2.44628e-08 113.94 0.559644 114.5 1.25 114.5C1.94036 114.5 2.5 113.94 2.5 113.25Z" fill="#28262F"/>
<path d="M2.5 123.75C2.5 123.06 1.94036 122.5 1.25 122.5C0.559644 122.5 -8.48157e-08 123.06 -5.46392e-08 123.75C-2.44628e-08 124.44 0.559644 125 1.25 125C1.94036 125 2.5 124.44 2.5 123.75Z" fill="#28262F"/>
<path d="M7 118.5C7 117.81 6.44036 117.25 5.75 117.25C5.05964 117.25 4.5 117.81 4.5 118.5C4.5 119.19 5.05964 119.75 5.75 119.75C6.44036 119.75 7 119.19 7 118.5Z" fill="#28262F"/>
<path d="M7 113.25C7 112.56 6.44036 112 5.75 112C5.05964 112 4.5 112.56 4.5 113.25C4.5 113.94 5.05964 114.5 5.75 114.5C6.44036 114.5 7 113.94 7 113.25Z" fill="#28262F"/>
<path d="M7 123.75C7 123.06 6.44036 122.5 5.75 122.5C5.05964 122.5 4.5 123.06 4.5 123.75C4.5 124.44 5.05964 125 5.75 125C6.44036 125 7 124.44 7 123.75Z" fill="#28262F"/>
</svg>
