<svg width="16" height="5" viewBox="0 0 16 5" fill="none" xmlns="http://www.w3.org/2000/svg">
<g clip-path="url(#clip0_2172_13942)">
<path d="M7 1.25C7 0.559644 6.44036 -8.48157e-08 5.75 -5.46392e-08C5.05964 -2.44628e-08 4.5 0.559644 4.5 1.25C4.5 1.94036 5.05964 2.5 5.75 2.5C6.44036 2.5 7 1.94036 7 1.25Z" fill="#28262F"/>
<path d="M11.5 1.25C11.5 0.559644 10.9404 -8.48157e-08 10.25 -5.46392e-08C9.55964 -2.44628e-08 9 0.559644 9 1.25C9 1.94036 9.55964 2.5 10.25 2.5C10.9404 2.5 11.5 1.94036 11.5 1.25Z" fill="#28262F"/>
</g>
<defs>
<clipPath id="clip0_2172_13942">
<rect width="16" height="5" fill="white"/>
</clipPath>
</defs>
</svg>
