<svg xmlns="http://www.w3.org/2000/svg" viewBox="0 0 79.7 80" width="32" height="32" fill="none" stroke-linecap="round" stroke-linejoin="round">
  <g stroke="#000" stroke-width="3.4" opacity="0.6">
    <line x1="47.4" y1="32.5" x2="42.4" y2="37.5"/>
    <line x1="37.3" y1="42.5" x2="32.4" y2="47.5"/>
    <line x1="47.4" y1="47.5" x2="42.4" y2="42.5"/>
    <line x1="37.3" y1="37.5" x2="32.4" y2="32.5"/>
    <polyline points="47.1 63.5 16.3 63.5 16.3 32.9"/>
    <line x1="16.3" y1="63.5" x2="62.9" y2="16.9"/>
    <line x1="62.9" y1="63.5" x2="16.3" y2="16.9"/>
    <polyline points="32.6 16.5 63.4 16.5 63.4 47.2"/>
  </g>
  <g stroke="#fff" stroke-width="1.7">
    <line x1="47.4" y1="32.5" x2="42.4" y2="37.5"/>
    <line x1="37.3" y1="42.5" x2="32.4" y2="47.5"/>
    <line x1="47.4" y1="47.5" x2="42.4" y2="42.5"/>
    <line x1="37.3" y1="37.5" x2="32.4" y2="32.5"/>
    <polyline points="47.1 63.5 16.3 63.5 16.3 32.9"/>
    <line x1="16.3" y1="63.5" x2="62.9" y2="16.9"/>
    <line x1="62.9" y1="63.5" x2="16.3" y2="16.9"/>
    <polyline points="32.6 16.5 63.4 16.5 63.4 47.2"/>
  </g>
</svg>
