<svg width="18" height="18" viewBox="0 0 18 18" fill="none" xmlns="http://www.w3.org/2000/svg">
<path d="M2.302 7.1762C2.82667 7.1762 3.2522 6.75067 3.2522 6.226C3.2522 5.70133 2.82667 5.27581 2.302 5.27581C1.77733 5.27581 1.35181 5.70133 1.35181 6.226C1.35181 6.75067 1.77733 7.1762 2.302 7.1762Z" fill="#817E89"/>
<path d="M4.8232 3.873C4.8232 4.39767 4.39767 4.8232 3.873 4.8232C3.34833 4.8232 2.92281 4.39767 2.92281 3.873C2.92281 3.34833 3.34833 2.92281 3.873 2.92281C4.39767 2.92281 4.8232 3.34833 4.8232 3.873Z" fill="#817E89"/>
<path d="M7.1762 2.302C7.1762 2.82667 6.75067 3.2522 6.226 3.2522C5.70133 3.2522 5.27581 2.82667 5.27581 2.302C5.27581 1.77733 5.70133 1.35181 6.226 1.35181C6.75067 1.35181 7.1762 1.77733 7.1762 2.302Z" fill="#817E89"/>
<path d="M8.9996 8.2998C9.3862 8.2998 9.6998 8.6134 9.6998 9C9.6998 9.3866 9.3862 9.7002 8.9996 9.7002H4.75742C4.37082 9.7002 4.05722 9.3866 4.05722 9C4.05722 8.6134 4.37082 8.2998 4.75742 8.2998H8.9996Z" fill="#817E89"/>
<path d="M1.0498 9C1.0498 8.6134 1.3634 8.2998 1.75 8.2998C2.1366 8.2998 2.4502 8.6134 2.4502 9C2.4502 12.6175 5.3825 15.5498 9 15.5498C12.6175 15.5498 15.5498 12.6175 15.5498 9C15.5498 5.3825 12.6175 2.4502 9 2.4502C8.6134 2.4502 8.2998 2.1366 8.2998 1.75C8.2998 1.3634 8.6134 1.0498 9 1.0498C13.3907 1.0498 16.9502 4.6093 16.9502 9C16.9502 13.3907 13.3907 16.9502 9 16.9502C4.6093 16.9502 1.0498 13.3907 1.0498 9Z" fill="#817E89"/>
</svg>
