<svg xmlns="http://www.w3.org/2000/svg" viewBox="0 0 79.7 80" width="32" height="32" fill="none" stroke-linecap="round" stroke-linejoin="round">
  <g stroke="#000" stroke-width="3.4" opacity="0.6">
    <line x1="39.9" y1="8.7" x2="39.9" y2="29.5"/>
    <line x1="39.9" y1="50.6" x2="39.9" y2="71.3"/>
    <line x1="71.2" y1="40" x2="50.4" y2="40"/>
    <line x1="29.3" y1="40" x2="8.6" y2="40"/>
    <line x1="47.4" y1="32.5" x2="42.4" y2="37.5"/>
    <line x1="37.3" y1="42.5" x2="32.4" y2="47.5"/>
    <line x1="47.4" y1="47.5" x2="42.4" y2="42.5"/>
    <line x1="37.3" y1="37.5" x2="32.4" y2="32.5"/>
  </g>
  <g stroke="#fff" stroke-width="1.7">
    <line x1="39.9" y1="8.7" x2="39.9" y2="29.5"/>
    <line x1="39.9" y1="50.6" x2="39.9" y2="71.3"/>
    <line x1="71.2" y1="40" x2="50.4" y2="40"/>
    <line x1="29.3" y1="40" x2="8.6" y2="40"/>
    <line x1="47.4" y1="32.5" x2="42.4" y2="37.5"/>
    <line x1="37.3" y1="42.5" x2="32.4" y2="47.5"/>
    <line x1="47.4" y1="47.5" x2="42.4" y2="42.5"/>
    <line x1="37.3" y1="37.5" x2="32.4" y2="32.5"/>
  </g>
</svg>
