<svg width="18" height="18" viewBox="0 0 18 18" fill="none" xmlns="http://www.w3.org/2000/svg">
<path d="M12.4951 12.7549C12.7685 13.0283 12.7685 13.4718 12.4951 13.7451L9.49512 16.7451C9.22176 17.0185 8.77826 17.0185 8.50489 16.7451L5.50489 13.7451C5.23152 13.4718 5.23152 13.0283 5.50489 12.7549C5.77826 12.4815 6.22176 12.4815 6.49512 12.7549L9.00001 15.2598L11.5049 12.7549C11.7783 12.4815 12.2218 12.4815 12.4951 12.7549Z" fill="#817E89"/>
<path d="M12.4951 4.25489C12.7685 4.52826 12.7685 4.97176 12.4951 5.24513C12.2218 5.51849 11.7783 5.51849 11.5049 5.24513L9.00001 2.74024L6.49512 5.24513C6.22176 5.51849 5.77826 5.51849 5.50489 5.24512C5.23152 4.97176 5.23152 4.52826 5.50489 4.25489L8.50489 1.25489C8.77826 0.981524 9.22176 0.981524 9.49512 1.25489L12.4951 4.25489Z" fill="#817E89"/>
<path d="M9.70019 16.25C9.70019 16.6366 9.3866 16.9502 9 16.9502C8.6134 16.9502 8.2998 16.6366 8.2998 16.25L8.2998 1.75C8.2998 1.3634 8.6134 1.0498 9 1.0498C9.3866 1.0498 9.7002 1.3634 9.7002 1.75L9.70019 16.25Z" fill="#817E89"/>
</svg>
