<?xml version="1.0" encoding="UTF-8"?>
<svg id="Layer_1" xmlns="http://www.w3.org/2000/svg" version="1.1" viewBox="0 0 763.6 170.4">
  <!-- Generator: Adobe Illustrator 30.3.0, SVG Export Plug-In . SVG Version: 2.1.3 Build 182)  -->
  <defs>
    <style>
      .st0 {
        fill: #fff;
      }
    </style>
  </defs>
  <path class="st0" d="M11.5,64l.4-.7,13.9-13.9.7-.4h81.3c.5,0,.7.2.7.7v13.2l-.4.7-13.9,13.9-.7.4H12.3c-.5,0-.7-.2-.7-.7v-13.2ZM25.8,145.7l-13.9-13.9-.4-.7v-33.3l.4-.7,13.9-13.9.7-.4h13.6c.5,0,.7.2.7.7v31.1l.4.7,1.1,1.1.7.4h50.6l.7.4,13.9,13.9.4.7v13.6c0,.5-.2.7-.7.7H26.5l-.7-.4Z"/>
  <path class="st0" d="M128.4,145.7l-13.9-13.9-.4-.7V64l.4-.7,13.9-13.9.7-.4h81.3c.5,0,.7.2.7.7v13.6l-.4.7-13.9,13.9-.7.4h-50.6l-.7.4-1.1,1.1-.4.7v34.1l.4.7,1.1,1.1.7.4h31.1c.5,0,.7.2.7.7v13.6l-.4.7-13.9,13.9-.7.4h-33.3l-.7-.4ZM181.9,83.4c0-.5.2-.7.7-.7h13.6l.7.4,13.9,13.9.4.7v47.6c0,.5-.2.7-.7.7h-13.6l-.7-.4-13.9-13.9-.4-.7v-47.6Z"/>
  <path class="st0" d="M218.5,63.6l.4-.7,13.9-13.9.7-.4h81.3c.5,0,.7.2.7.7v13.6l-.4.7-13.9,13.9-.7.4h-81.3c-.5,0-.7-.2-.7-.7v-13.6Z"/>
  <path class="st0" d="M232.8,145.7l-13.9-13.9-.4-.7v-26l.4-.7,21.2-21.2.7-.4h6.2c.5,0,.7.2.7.7v31.1l.4.7,1.1,1.1.7.4h30.6l.7.4,13.9,13.9.4.7v13.6c0,.5-.2.7-.7.7h-61.3l-.7-.4Z"/>
  <path class="st0" d="M247.9,43.4c0,.5-.2.7-.7.7h-13.6s-.7-.4-.7-.4l-13.9-13.9-.4-.7v-13.6c0-.5.2-.7.7-.7h27.8c.5,0,.7.2.7.7v27.8Z"/>
  <path class="st0" d="M390.7,145.3v-64.8l-.4-.7-1.1-1.1-.7-.4h-50.6l-.7-.4-13.9-13.9-.4-.7V29.9l.4-.7,13.9-13.9.7-.4h13.6c.5,0,.7.2.7.7v31.1l.4.7,1.1,1.1.7.4h50.6l.7.4,13.9,13.9.4.7v67l-.4.7-13.9,13.9-.7.4h-13.6c-.5,0-.7-.2-.7-.7ZM322.9,97.7l.4-.7,13.9-13.9.7-.4h13.6c.5,0,.7.2.7.7v47.6l-.4.7-13.9,13.9-.7.4h-13.6c-.5,0-.7-.2-.7-.7v-47.6Z"/>
  <g>
    <path class="st0" d="M547.9,64l.4-.7,13.9-13.9.7-.4h50.6l.7-.4,1.1-1.1.4-.7v-16.9l.4-.7,13.9-13.9.7-.4h13.6c.5,0,.7.2.7.7v47.6l-.4.7-13.9,13.9-.7.4h-50.6l-.7.4-1.1,1.1-.4.7v34.1l.4.7,1.1,1.1.7.4h30.8c.5,0,.7.2.7.7v13.6l-.4.7-13.9,13.9-.7.4h-33l-.7-.4-13.9-13.9-.4-.7V64ZM629.9,145.7l-13.9-13.9-.4-.7v-47.6c0-.5.2-.7.7-.7h13.6l.7.4,13.9,13.9.4.7v47.6c0,.5-.2.7-.7.7h-13.6l-.7-.4Z"/>
    <path class="st0" d="M720,80.4c.2-1.4-.9-2.3-2.2-2.2h-64.8c-1.6.9-.3-14-.7-14.3l.4-.7,13.9-13.9c.6-1.1,67,0,67.8-.4,0,0,.7.4.7.4l13.9,13.9.4.7v22.6l-.4.7-21.2,21.2-.7.4h-33.6c-.5,0-.7-.2-.7-.7l27.4-27.8ZM666.6,145.7l-13.9-13.9-.4-.7v-33.3l.4-.7,13.9-13.9.7-.4h13.6c.5,0,.7.2.7.7v31.1l.4.7,1.1,1.1.7.4h50.6l.7.4,13.9,13.9.4.7v13.6c0,.5-.2.7-.7.7h-81.3l-.7-.4Z"/>
  </g>
  <g>
    <path class="st0" d="M479.6,83.3c7.4-17.5,1.9-17.5,9.3,0,9.7-6,21.5-14.5,35.4-26.5l-6.1-6.1-.7-.4h-66.4l-.7.4-6.1,6.1c13.9,12.1,25.7,20.6,35.4,26.5Z"/>
    <path class="st0" d="M499.3,103c6,9.7,14.5,21.5,26.6,35.5l6-5.9.4-.7v-66.8l-.4-.7-6.1-6.1c-12.1,13.9-20.6,25.7-26.5,35.4,17.5,7.4,17.5,1.9,0,9.3Z"/>
    <path class="st0" d="M488.9,113.4c-7.4,17.5-1.9,17.5-9.3,0-9.7,6-21.5,14.5-35.5,26.6l6.2,6,.7.4h66.4l.7-.4,6.2-6c-14-12.1-25.8-20.6-35.5-26.6Z"/>
    <path class="st0" d="M469.1,93.7c-6-9.7-14.5-21.5-26.5-35.4l-6.1,6.1-.4.7v66.8l.4.7,6,5.9c12.1-14,20.6-25.8,26.6-35.5-17.5-7.4-17.5-1.9,0-9.3Z"/>
  </g>
</svg>