<?xml version="1.0" encoding="UTF-8"?>
<svg id="Layer_1" xmlns="http://www.w3.org/2000/svg" version="1.1" viewBox="0 0 419.9 170.4">
  <!-- Generator: Adobe Illustrator 30.3.0, SVG Export Plug-In . SVG Version: 2.1.3 Build 182)  -->
  <defs>
    <style>
      .st0 {
        fill: #1963bf;
      }

      .st1 {
        fill: #fff;
      }

      .st2 {
        fill: #f88f14;
      }

      .st3 {
        fill: none;
      }

      .st4 {
        fill: #1692cc;
      }

      .st5 {
        fill: #fbd41f;
      }

      .st6 {
        fill: #ff5720;
      }

      .st7 {
        fill: #323aba;
      }
    </style>
  </defs>
  <g>
    <polygon class="st3" points="189.2 171 591.9 171 591.9 .6 359.6 .6 189.2 171"/>
    <polygon class="st3" points="-171.8 .6 -171.8 171 34.5 171 204.9 .6 -171.8 .6"/>
    <polygon class="st7" points="204.9 .6 34.5 171 60.3 171 230.7 .6 204.9 .6"/>
    <polygon class="st0" points="230.7 .6 60.3 171 86.1 171 256.6 .6 230.7 .6"/>
    <polygon class="st4" points="256.6 .6 86.1 171 112 171 282.4 .6 256.6 .6"/>
    <polygon class="st5" points="282.4 .6 112 171 137.8 171 308.2 .6 282.4 .6"/>
    <polygon class="st2" points="308.2 .6 137.8 171 163.3 171 333.8 .6 308.2 .6"/>
    <polygon class="st6" points="333.8 .6 163.3 171 189.2 171 359.6 .6 333.8 .6"/>
  </g>
  <g>
    <path class="st1" d="M0,66.5l.2-.4,7.9-7.9.4-.2h46.3c.3,0,.4.1.4.4v7.5l-.2.4-7.9,7.9-.4.2H.5c-.3,0-.4-.1-.4-.4v-7.5h0ZM8.1,113L.2,105.1l-.2-.4v-19l.2-.4,7.9-7.9.4-.2h7.7c.3,0,.4.1.4.4v17.7l.2.4.6.6.4.2h28.8l.4.2,7.9,7.9.2.4v7.7c0,.3-.1.4-.4.4H8.5l-.4-.2Z"/>
    <path class="st1" d="M66.6,113l-7.9-7.9-.2-.4v-38.2l.2-.4,7.9-7.9.4-.2h46.3c.3,0,.4.1.4.4v7.7l-.2.4-7.9,7.9-.4.2h-28.8l-.4.2-.6.6-.2.4v19.4l.2.4.6.6.4.2h17.7c.3,0,.4.1.4.4v7.7l-.2.4-7.9,7.9-.4.2h-19l-.4-.2h0ZM97,77.5c0-.3.1-.4.4-.4h7.7l.4.2,7.9,7.9.2.4v27.1c0,.3-.1.4-.4.4h-7.7l-.4-.2-7.9-7.9-.2-.4v-27.1h0Z"/>
    <path class="st1" d="M117.9,66.2l.2-.4,7.9-7.9.4-.2h46.3c.3,0,.4.1.4.4v7.7l-.2.4-7.9,7.9-.4.2h-46.3c-.3,0-.4-.1-.4-.4v-7.7Z"/>
    <path class="st1" d="M126,113l-7.9-7.9-.2-.4v-14.8l.2-.4,12.1-12.1.4-.2h3.5c.3,0,.4.1.4.4v17.7l.2.4.6.6.4.2h17.4l.4.2,7.9,7.9.2.4v7.7c0,.3-.1.4-.4.4h-34.9l-.4-.2h0Z"/>
    <path class="st1" d="M134.6,54.7c0,.3-.1.4-.4.4h-7.7l-.4-.2-7.9-7.9-.2-.4v-7.7c0-.3.1-.4.4-.4h15.8c.3,0,.4.1.4.4v15.8h0Z"/>
    <path class="st1" d="M215.9,112.8v-36.9l-.2-.4-.6-.6-.4-.2h-28.8l-.4-.2-7.9-7.9-.2-.4v-19l.2-.4,7.9-7.9.4-.2h7.7c.3,0,.4.1.4.4v17.7l.2.4.6.6.4.2h28.8l.4.2,7.9,7.9.2.4v38.2l-.2.4-7.9,7.9-.4.2h-7.7c-.3,0-.4-.1-.4-.4h0ZM177.3,85.7l.2-.4,7.9-7.9.4-.2h7.7c.3,0,.4.1.4.4v27.1l-.2.4-7.9,7.9-.4.2h-7.7c-.3,0-.4-.1-.4-.4,0,0,0-27.1,0-27.1Z"/>
    <g>
      <path class="st1" d="M305.4,66.5l.2-.4,7.9-7.9.4-.2h28.8l.4-.2.6-.6.2-.4v-9.6l.2-.4,7.9-7.9.4-.2h7.7c.3,0,.4.1.4.4v27.1l-.2.4-7.9,7.9-.4.2h-28.8l-.4.2-.6.6-.2.4v19.4l.2.4.6.6.4.2h17.5c.3,0,.4.1.4.4v7.7l-.2.4-7.9,7.9-.4.2h-18.8l-.4-.2-7.9-7.9-.2-.4v-38.2h0ZM352.1,113l-7.9-7.9-.2-.4v-27.1c0-.3.1-.4.4-.4h7.7l.4.2,7.9,7.9.2.4v27.1c0,.3-.1.4-.4.4h-7.7l-.4-.2h0Z"/>
      <path class="st1" d="M403.4,75.8c.1-.8-.5-1.3-1.3-1.3h-36.9c-.9.5-.2-8-.4-8.1l.2-.4,7.9-7.9c.3-.6,38.2,0,38.6-.2l.4.2,7.9,7.9.2.4v12.9l-.2.4-12.1,12.1-.4.2h-19.1c-.3,0-.4-.1-.4-.4l15.6-15.8h-.1ZM373,113l-7.9-7.9-.2-.4v-19l.2-.4,7.9-7.9.4-.2h7.7c.3,0,.4.1.4.4v17.7l.2.4.6.6.4.2h28.8l.4.2,7.9,7.9.2.4v7.7c0,.3-.1.4-.4.4h-46.3l-.4-.2h0Z"/>
    </g>
    <g>
      <path class="st1" d="M266.5,77.5c4.2-10,1.1-10,5.3,0,5.5-3.4,12.2-8.3,20.2-15.1l-3.5-3.5-.4-.2h-37.8l-.4.2-3.5,3.5c7.9,6.9,14.6,11.7,20.2,15.1h0Z"/>
      <path class="st1" d="M277.8,88.7c3.4,5.5,8.3,12.2,15.1,20.2l3.4-3.4.2-.4v-38l-.2-.4-3.5-3.5c-6.9,7.9-11.7,14.6-15.1,20.2,10,4.2,10,1.1,0,5.3h0Z"/>
      <path class="st1" d="M271.8,94.6c-4.2,10-1.1,10-5.3,0-5.5,3.4-12.2,8.3-20.2,15.1l3.5,3.4.4.2h37.8l.4-.2,3.5-3.4c-8-6.9-14.7-11.7-20.2-15.1h0Z"/>
      <path class="st1" d="M260.6,83.4c-3.4-5.5-8.3-12.2-15.1-20.2l-3.5,3.5-.2.4v38l.2.4,3.4,3.4c6.9-8,11.7-14.7,15.1-20.2-10-4.2-10-1.1,0-5.3h0Z"/>
    </g>
  </g>
</svg>